<?xml version="1.0" encoding="UTF-8"?>
<svg id="Layer_1" xmlns="http://www.w3.org/2000/svg" version="1.1" viewBox="0 0 1113.95 772.09">
  <!-- Generator: Adobe Illustrator 29.6.0, SVG Export Plug-In . SVG Version: 2.1.1 Build 207)  -->
  <defs>
    <style>
      .st0 {
        fill: #006cb7;
      }

      .st1 {
        fill: #231f20;
      }
    </style>
  </defs>
  <g>
    <g>
      <polygon class="st1" points="701.98 456.03 545.93 417.02 389.87 456.03 389.87 417.02 367.58 417.02 367.58 461.6 367.58 483.9 545.93 439.31 724.28 483.9 724.28 461.6 724.28 461.6 724.28 417.02 701.98 417.02 701.98 456.03"/>
      <polygon class="st1" points="724.28 127.2 724.28 127.2 724.27 127.2 545.93 82.61 367.58 127.2 367.58 127.2 367.58 171.78 389.87 171.78 389.87 143.92 545.93 104.9 701.98 143.92 701.98 171.78 724.28 171.78 724.28 149.49 724.28 149.49 724.28 127.2 724.28 127.2"/>
      <polygon class="st1" points="367.58 216.37 367.58 238.67 367.58 305.55 367.58 327.84 545.93 283.25 701.98 322.27 701.98 366.85 545.93 327.84 367.58 372.43 367.58 394.72 545.93 350.13 724.28 394.72 724.28 372.43 724.28 327.84 724.28 305.55 545.93 260.96 389.87 299.97 389.87 233.09 545.93 194.08 724.28 238.67 724.28 216.37 545.93 171.78 367.58 216.37"/>
    </g>
    <g>
      <path class="st1" d="M168.84,629.31l-6.7-17.74h-34.24l-6.7,17.74h-7.63l27.74-72.18h7.42l27.74,72.18h-7.63ZM130.48,604.77h29.08l-14.54-38.67-14.54,38.67Z"/>
      <path class="st1" d="M207.51,576.52c7.63,0,13.8,2.7,18.51,8.09,4.71,5.4,7.06,11.77,7.06,19.13,0,.76-.07,1.82-.21,3.2h-45.27c.69,5.23,2.9,9.37,6.65,12.43,3.75,3.06,8.37,4.59,13.87,4.59,3.92,0,7.3-.81,10.16-2.42,2.85-1.61,5-3.73,6.45-6.34l5.98,3.51c-2.27,3.64-5.36,6.53-9.28,8.66-3.92,2.13-8.39,3.2-13.41,3.2-8.11,0-14.71-2.54-19.8-7.63-5.09-5.09-7.63-11.55-7.63-19.39s2.51-14.13,7.53-19.28c5.02-5.16,11.48-7.73,19.39-7.73ZM207.51,583.11c-5.36,0-9.85,1.6-13.46,4.8-3.61,3.2-5.76,7.34-6.44,12.43h38.46c-.69-5.43-2.78-9.66-6.29-12.68-3.51-3.02-7.6-4.54-12.27-4.54Z"/>
      <path class="st1" d="M250.72,586.31c3.16-6.25,8.59-9.38,16.29-9.38v6.6c-4.68,0-8.56,1.38-11.65,4.12-3.09,2.75-4.64,7.08-4.64,12.99v28.67h-6.81v-51.56h6.81v8.56Z"/>
      <path class="st1" d="M316.46,622.76c-5.26,5.19-11.67,7.79-19.23,7.79s-13.97-2.59-19.23-7.79c-5.26-5.19-7.89-11.6-7.89-19.23s2.63-14.04,7.89-19.23c5.26-5.19,11.67-7.79,19.23-7.79s13.97,2.6,19.23,7.79c5.26,5.19,7.89,11.6,7.89,19.23s-2.63,14.04-7.89,19.23ZM282.79,618.02c3.92,3.95,8.73,5.93,14.44,5.93s10.52-1.98,14.44-5.93c3.92-3.95,5.88-8.78,5.88-14.49s-1.96-10.53-5.88-14.49c-3.92-3.95-8.73-5.93-14.44-5.93s-10.52,1.98-14.44,5.93c-3.92,3.95-5.88,8.78-5.88,14.49s1.96,10.54,5.88,14.49Z"/>
      <path class="st1" d="M385.49,630.65c-6.94,0-12.84-1.58-17.68-4.74-4.85-3.16-8.23-7.49-10.16-12.99l10.21-5.98c2.89,8.11,8.87,12.17,17.94,12.17,4.47,0,7.82-.88,10.05-2.63,2.23-1.75,3.35-4.04,3.35-6.86s-1.2-5.21-3.61-6.75c-2.41-1.55-6.67-3.25-12.79-5.1-3.44-1.03-6.22-1.99-8.35-2.89-2.13-.89-4.38-2.15-6.75-3.76-2.37-1.61-4.14-3.63-5.31-6.03-1.17-2.41-1.75-5.22-1.75-8.46,0-6.39,2.27-11.46,6.81-15.21,4.54-3.75,10-5.62,16.4-5.62,5.77,0,10.83,1.41,15.16,4.23,4.33,2.82,7.66,6.7,10,11.65l-10,5.77c-3.03-6.74-8.08-10.11-15.16-10.11-3.44,0-6.19.81-8.25,2.42-2.06,1.62-3.09,3.8-3.09,6.55s1.05,4.8,3.15,6.34c2.1,1.55,5.89,3.18,11.39,4.9,2.75.89,4.76,1.56,6.03,2.01,1.27.45,3.06,1.15,5.36,2.11,2.3.96,4.04,1.93,5.21,2.89,1.17.96,2.42,2.17,3.76,3.61,1.34,1.44,2.28,3.09,2.84,4.95.55,1.86.82,3.95.82,6.29,0,6.53-2.36,11.7-7.06,15.52-4.71,3.82-10.88,5.72-18.51,5.72Z"/>
      <path class="st1" d="M453.34,577.75h11.86l-19.8,53.21c-4.95,13.34-13.34,19.66-25.16,18.97v-10.41c3.51.21,6.32-.53,8.46-2.22,2.13-1.69,3.88-4.31,5.26-7.89l.52-1.03-21.86-50.63h12.17l15.36,37.43,13.2-37.43Z"/>
      <path class="st1" d="M479.12,591.98c0,1.72.94,3.08,2.84,4.07,1.89,1,4.19,1.86,6.91,2.58,2.71.72,5.45,1.56,8.2,2.53,2.75.96,5.07,2.6,6.96,4.9,1.89,2.3,2.84,5.21,2.84,8.71,0,4.95-1.91,8.83-5.72,11.65-3.82,2.82-8.61,4.23-14.38,4.23-5.09,0-9.45-1.07-13.1-3.2-3.64-2.13-6.29-5.09-7.94-8.87l9.59-5.57c1.79,4.95,5.6,7.42,11.45,7.42s8.77-1.92,8.77-5.77c0-1.65-.95-2.99-2.84-4.02-1.89-1.03-4.19-1.91-6.91-2.63-2.72-.72-5.45-1.56-8.2-2.53-2.75-.96-5.07-2.56-6.96-4.79-1.89-2.23-2.84-5.07-2.84-8.51,0-4.74,1.8-8.56,5.41-11.45,3.61-2.89,8.09-4.33,13.46-4.33,4.26,0,8.06.95,11.39,2.84,3.33,1.89,5.89,4.52,7.68,7.89l-9.38,5.26c-1.79-3.92-5.02-5.88-9.69-5.88-2.13,0-3.92.46-5.36,1.39-1.44.93-2.17,2.29-2.17,4.07Z"/>
      <path class="st1" d="M543.36,588.48h-12.79v24.75c0,2.13.48,3.66,1.44,4.59.96.93,2.39,1.44,4.28,1.55,1.89.1,4.24.09,7.06-.05v10c-8.52,1.03-14.64.29-18.35-2.22-3.71-2.51-5.57-7.13-5.57-13.87v-24.75h-9.49v-10.72h9.49v-11.14l11.14-3.3v14.44h12.79v10.72Z"/>
      <path class="st1" d="M560.17,608.28c.83,3.92,2.71,6.93,5.67,9.02,2.95,2.1,6.56,3.15,10.83,3.15,5.91,0,10.35-2.13,13.3-6.39l9.18,5.36c-5.09,7.49-12.62,11.24-22.58,11.24-8.39,0-15.16-2.56-20.31-7.68-5.16-5.12-7.73-11.6-7.73-19.44s2.54-14.14,7.63-19.33c5.09-5.19,11.62-7.79,19.59-7.79,7.56,0,13.77,2.65,18.61,7.94,4.85,5.29,7.27,11.72,7.27,19.28,0,1.17-.14,2.72-.41,4.64h-41.04ZM560.07,599.2h30.32c-.76-4.19-2.49-7.36-5.21-9.49-2.72-2.13-5.9-3.2-9.54-3.2-4.12,0-7.56,1.13-10.31,3.4-2.75,2.27-4.5,5.36-5.26,9.28Z"/>
      <path class="st1" d="M667.72,576.41c5.84,0,10.55,1.89,14.13,5.67,3.57,3.78,5.36,8.87,5.36,15.26v31.97h-11.14v-31.24c0-3.57-.89-6.34-2.68-8.3-1.79-1.96-4.23-2.94-7.32-2.94-3.44,0-6.17,1.13-8.2,3.4-2.03,2.27-3.04,5.67-3.04,10.21v28.87h-11.14v-31.24c0-3.57-.84-6.34-2.53-8.3-1.69-1.96-4.07-2.94-7.17-2.94-3.37,0-6.12,1.15-8.25,3.45-2.13,2.3-3.2,5.69-3.2,10.16v28.87h-11.14v-51.56h11.14v6.19c3.3-5.02,8.21-7.53,14.75-7.53s11.48,2.72,14.64,8.15c3.44-5.43,8.7-8.15,15.78-8.15Z"/>
      <path class="st1" d="M709.17,591.98c0,1.72.94,3.08,2.84,4.07,1.89,1,4.19,1.86,6.91,2.58,2.71.72,5.45,1.56,8.2,2.53,2.75.96,5.07,2.6,6.96,4.9,1.89,2.3,2.84,5.21,2.84,8.71,0,4.95-1.91,8.83-5.72,11.65-3.82,2.82-8.61,4.23-14.38,4.23-5.09,0-9.45-1.07-13.1-3.2-3.64-2.13-6.29-5.09-7.94-8.87l9.59-5.57c1.79,4.95,5.6,7.42,11.45,7.42s8.77-1.92,8.77-5.77c0-1.65-.95-2.99-2.84-4.02-1.89-1.03-4.19-1.91-6.91-2.63-2.72-.72-5.45-1.56-8.2-2.53-2.75-.96-5.07-2.56-6.96-4.79-1.89-2.23-2.84-5.07-2.84-8.51,0-4.74,1.8-8.56,5.41-11.45,3.61-2.89,8.09-4.33,13.46-4.33,4.26,0,8.06.95,11.39,2.84,3.33,1.89,5.89,4.52,7.68,7.89l-9.38,5.26c-1.79-3.92-5.02-5.88-9.69-5.88-2.13,0-3.92.46-5.36,1.39-1.44.93-2.17,2.29-2.17,4.07Z"/>
      <path class="st1" d="M790.02,629.31l-20.93-72.18h7.63l17.84,62.39,18.77-62.39h8.46l18.77,62.39,17.84-62.39h7.63l-20.93,72.18h-8.66l-18.87-62.7-18.87,62.7h-8.66Z"/>
      <path class="st1" d="M893.96,576.52c7.63,0,13.8,2.7,18.51,8.09,4.71,5.4,7.06,11.77,7.06,19.13,0,.76-.07,1.82-.21,3.2h-45.27c.69,5.23,2.9,9.37,6.65,12.43,3.75,3.06,8.37,4.59,13.87,4.59,3.92,0,7.3-.81,10.16-2.42,2.85-1.61,5-3.73,6.44-6.34l5.98,3.51c-2.27,3.64-5.36,6.53-9.28,8.66-3.92,2.13-8.39,3.2-13.41,3.2-8.11,0-14.71-2.54-19.8-7.63-5.09-5.09-7.63-11.55-7.63-19.39s2.51-14.13,7.53-19.28c5.02-5.16,11.48-7.73,19.39-7.73ZM893.96,583.11c-5.36,0-9.85,1.6-13.46,4.8-3.61,3.2-5.76,7.34-6.44,12.43h38.46c-.69-5.43-2.78-9.66-6.29-12.68-3.51-3.02-7.6-4.54-12.27-4.54Z"/>
      <path class="st1" d="M933.66,591.26c0,2.34,1.03,4.19,3.09,5.57,2.06,1.38,4.57,2.44,7.53,3.2,2.96.76,5.91,1.6,8.87,2.53,2.96.93,5.47,2.47,7.53,4.64,2.06,2.17,3.09,5,3.09,8.51,0,4.4-1.74,7.98-5.21,10.72-3.47,2.75-7.96,4.12-13.46,4.12-4.95,0-9.16-1.1-12.63-3.3-3.47-2.2-5.9-5.05-7.27-8.56l5.77-3.4c.96,2.68,2.7,4.8,5.21,6.34,2.51,1.55,5.48,2.32,8.92,2.32s6.19-.67,8.46-2.01c2.27-1.34,3.4-3.42,3.4-6.24,0-2.34-1.03-4.19-3.09-5.57-2.06-1.37-4.57-2.44-7.53-3.2-2.96-.76-5.91-1.6-8.87-2.53-2.96-.93-5.47-2.47-7.53-4.64-2.06-2.17-3.09-5-3.09-8.51,0-4.19,1.67-7.7,5-10.52,3.33-2.82,7.54-4.23,12.63-4.23,4.19,0,7.87.95,11.03,2.84,3.16,1.89,5.5,4.45,7.01,7.68l-5.67,3.3c-1.99-4.81-6.12-7.22-12.37-7.22-2.96,0-5.5.71-7.63,2.11-2.13,1.41-3.2,3.42-3.2,6.03Z"/>
      <path class="st1" d="M1000.38,584.35h-14.85v31.24c0,2.82.55,4.83,1.65,6.03,1.1,1.2,2.75,1.82,4.95,1.86,2.2.04,4.95-.02,8.25-.15v5.98c-7.22,1.1-12.63.58-16.24-1.55-3.61-2.13-5.41-6.19-5.41-12.17v-31.24h-10.83v-6.6h10.83v-12.37l6.81-2.06v14.44h14.85v6.6Z"/>
    </g>
  </g>
  <g>
    <path class="st0" d="M186,688.99l-1.98-5.45h-11.15l-1.98,5.45h-3.47l9.17-24.78h3.72l9.17,24.78h-3.47ZM174.1,680.31h8.92l-4.46-12.14-4.46,12.14Z"/>
    <path class="st0" d="M244.98,664.21h3.22v24.78h-2.73l-12.64-18.59v18.59h-3.22v-24.78h2.73l12.64,18.34s0-18.34,0-18.34Z"/>
    <path class="st0" d="M267.77,664.21h3.22v24.78h-3.22v-24.78Z"/>
    <path class="st0" d="M299.25,664.21c2.23,0,4.21.74,5.7,2.23,1.49,1.49,2.23,3.47,2.23,5.7s-.74,4.21-2.23,5.7-3.47,2.23-5.7,2.23h-5.7v8.92h-3.22v-24.78s8.92,0,8.92,0ZM299.25,677.09c1.49,0,2.48-.5,3.47-1.49.99-.99,1.24-1.98,1.24-3.47s-.5-2.48-1.24-3.47c-.99-.99-1.98-1.49-3.47-1.49h-5.7v9.66h5.7v.25Z"/>
    <path class="st0" d="M334.19,664.21c2.23,0,4.21.74,5.7,2.23,1.49,1.49,2.23,3.47,2.23,5.7s-.74,4.21-2.23,5.7-3.47,2.23-5.7,2.23h-5.7v8.92h-3.22v-24.78s8.92,0,8.92,0ZM334.19,677.09c1.49,0,2.48-.5,3.47-1.49.99-.99,1.24-1.98,1.24-3.47s-.5-2.48-1.24-3.47c-.99-.99-1.98-1.49-3.47-1.49h-5.7v9.66h5.7v.25Z"/>
    <path class="st0" d="M380.78,685.77c-2.48,2.48-5.45,3.72-9.17,3.72-3.47,0-6.69-1.24-9.17-3.72s-3.72-5.45-3.72-9.17c0-3.47,1.24-6.69,3.72-9.17s5.45-3.72,9.17-3.72c3.47,0,6.69,1.24,9.17,3.72s3.72,5.45,3.72,9.17-1.24,6.69-3.72,9.17ZM364.67,683.54c1.73,1.73,4.21,2.73,6.69,2.73,2.73,0,4.96-.99,6.69-2.73,1.73-1.73,2.73-4.21,2.73-6.94s-.99-4.96-2.73-6.94c-1.73-1.73-4.21-2.73-6.69-2.73-2.73,0-4.96.99-6.69,2.73-1.73,1.73-2.73,4.21-2.73,6.94s.99,4.96,2.73,6.94Z"/>
    <path class="st0" d="M417.7,664.21h3.22v24.78h-2.73l-12.64-18.59v18.59h-3.22v-24.78h2.73l12.64,18.34v-18.34Z"/>
    <path class="st0" d="M481.39,688.99h-3.97l-10.66-11.9v11.9h-3.22v-24.78h3.22v11.15l10.41-11.15h3.97l-10.9,11.9,11.15,12.89Z"/>
    <path class="st0" d="M515.1,688.99l-1.98-5.45h-11.15l-1.98,5.45h-3.47l9.17-24.78h3.72l9.17,24.78h-3.47ZM503.2,680.31h8.92l-4.46-12.14-4.46,12.14Z"/>
    <path class="st0" d="M551.03,664.21l-8.67,14.62v9.91h-3.22v-9.91l-8.67-14.62h3.72l6.69,11.65,6.69-11.65s3.47,0,3.47,0Z"/>
    <path class="st0" d="M581.01,688.99l-1.98-5.45h-11.15l-1.98,5.45h-3.47l9.17-24.78h3.72l9.17,24.78h-3.47ZM569.12,680.31h8.92l-4.46-12.14-4.46,12.14Z"/>
    <path class="st0" d="M619.67,688.99h-3.97l-10.66-11.9v11.9h-3.22v-24.78h3.22v11.15l10.41-11.15h3.97l-10.9,11.9,11.15,12.89Z"/>
    <path class="st0" d="M651.15,687.01c-1.73,1.49-3.97,2.48-6.69,2.48s-4.96-.74-6.69-2.48c-1.73-1.49-2.48-3.72-2.48-6.44v-16.36h3.22v16.36c0,1.73.5,3.22,1.49,4.21.99.99,2.48,1.49,4.46,1.49s3.47-.5,4.46-1.49c.99-.99,1.49-2.48,1.49-4.21v-16.36h3.22v16.36c0,2.73-.74,4.96-2.48,6.44Z"/>
    <path class="st0" d="M707.4,689.48c-3.72,0-6.94-1.24-9.17-3.72s-3.72-5.45-3.72-9.17,1.24-6.69,3.72-9.17,5.45-3.72,9.17-3.72c2.23,0,4.21.5,6.2,1.73,1.98.99,3.47,2.48,4.46,4.46l-2.97,1.73c-.74-1.49-1.73-2.48-3.22-3.22s-2.97-1.24-4.71-1.24c-2.73,0-5.2.99-6.94,2.73-1.73,1.73-2.73,4.21-2.73,6.94s.99,4.96,2.73,6.94c1.73,1.73,4.21,2.73,6.94,2.73,1.73,0,3.22-.5,4.71-1.24,1.49-.74,2.48-1.98,3.22-3.22l2.97,1.73c-.99,1.73-2.48,3.22-4.46,4.46-1.73.74-3.97,1.24-6.2,1.24Z"/>
    <path class="st0" d="M756.47,685.77c-2.48,2.48-5.45,3.72-9.17,3.72s-6.69-1.24-9.17-3.72-3.72-5.45-3.72-9.17c0-3.47,1.24-6.69,3.72-9.17s5.45-3.72,9.17-3.72,6.69,1.24,9.17,3.72,3.72,5.45,3.72,9.17-1.24,6.69-3.72,9.17ZM740.61,683.54c1.73,1.73,4.21,2.73,6.69,2.73s4.96-.99,6.69-2.73c1.73-1.73,2.73-4.21,2.73-6.94s-.99-4.96-2.73-6.94c-1.73-1.73-4.21-2.73-6.69-2.73s-4.96.99-6.69,2.73c-1.73,1.73-2.73,4.21-2.73,6.94s.74,4.96,2.73,6.94Z"/>
    <path class="st0" d="M801.32,664.21v24.78h-3.22v-19.33l-8.18,13.38h-.5l-8.18-13.38v19.33h-3.22v-24.78h3.72l7.93,13.13,7.93-13.13s3.72,0,3.72,0Z"/>
    <path class="st0" d="M829.82,664.21c2.23,0,4.21.74,5.7,2.23,1.49,1.49,2.23,3.47,2.23,5.7s-.74,4.21-2.23,5.7-3.47,2.23-5.7,2.23h-5.7v8.92h-3.22v-24.78s8.92,0,8.92,0ZM829.82,677.09c1.49,0,2.48-.5,3.47-1.49.99-.99,1.24-1.98,1.24-3.47s-.5-2.48-1.24-3.47c-.99-.99-1.98-1.49-3.47-1.49h-5.7v9.66h5.7v.25Z"/>
    <path class="st0" d="M869.47,688.99l-1.98-5.45h-11.15l-1.98,5.45h-3.47l9.17-24.78h3.72l9.17,24.78h-3.47ZM857.58,680.31h8.92l-4.46-12.14-4.46,12.14Z"/>
    <path class="st0" d="M905.41,664.21h3.22v24.78h-2.73l-12.64-18.59v18.59h-3.22v-24.78h2.73l12.64,18.34v-18.34Z"/>
    <path class="st0" d="M946.54,664.21l-8.67,14.62v9.91h-3.22v-9.91l-8.67-14.62h3.72l6.69,11.65,6.69-11.65s3.47,0,3.47,0Z"/>
  </g>
</svg>