<?xml version="1.0" encoding="UTF-8" standalone="no"?>
<!-- Generator: Adobe Illustrator 24.2.3, SVG Export Plug-In . SVG Version: 6.00 Build 0)  -->

<svg
   version="1.1"
   id="图层_1"
   x="0px"
   y="0px"
   viewBox="0 0 300 86.120003"
   xml:space="preserve"
   sodipodi:docname="CUAV-dark.svg"
   inkscape:version="1.2.2 (732a01da63, 2022-12-09)"
   width="300"
   height="86.120003"
   xmlns:inkscape="http://www.inkscape.org/namespaces/inkscape"
   xmlns:sodipodi="http://sodipodi.sourceforge.net/DTD/sodipodi-0.dtd"
   xmlns="http://www.w3.org/2000/svg"
   xmlns:svg="http://www.w3.org/2000/svg"><defs
   id="defs836" /><sodipodi:namedview
   id="namedview834"
   pagecolor="#a3a3a3"
   bordercolor="#000000"
   borderopacity="0.25"
   inkscape:showpageshadow="2"
   inkscape:pageopacity="0"
   inkscape:pagecheckerboard="0"
   inkscape:deskcolor="#d1d1d1"
   showgrid="false"
   inkscape:zoom="3.0205882"
   inkscape:cx="221.97663"
   inkscape:cy="43.037975"
   inkscape:window-width="2560"
   inkscape:window-height="1369"
   inkscape:window-x="1192"
   inkscape:window-y="185"
   inkscape:window-maximized="1"
   inkscape:current-layer="图层_1" />
<style
   type="text/css"
   id="style817">
	.st0{fill:#FFFFFF;}
</style>
<g
   id="g831"
   style="fill:#ffffff"
   transform="translate(-20,-126.94)">
	<g
   id="g829"
   style="fill:#ffffff">
		<path
   d="m 63.05,145.76 h 15.77 l 7.23,-18.82 h -23 c -23.74,0 -43.05,19.31 -43.05,43.05 0,23.74 19.31,43.05 43.05,43.05 h 12.39 l 7.22,-18.82 H 63.05 c -13.36,0 -24.23,-10.87 -24.23,-24.23 0,-13.36 10.87,-24.23 24.23,-24.23 z"
   id="path819"
   style="fill:#ffffff" />
		<path
   d="m 137.3,181.28 c 0,7.13 -5.81,12.94 -12.94,12.94 -7.13,0 -12.94,-5.81 -12.94,-12.94 V 126.94 H 98.65 l -1.14,2.98 -4.91,12.78 v 38.58 c 0,17.51 14.25,31.76 31.76,31.76 17.51,0 31.76,-14.25 31.76,-31.76 V 126.94 H 137.3 Z"
   id="path821"
   style="fill:#ffffff" />
		<polygon
   points="286.94,213.06 320,126.94 299.84,126.94 266.78,213.06 "
   id="polygon823"
   style="fill:#ffffff" />
		<polygon
   points="190.12,126.94 157.06,213.06 177.21,213.06 201.86,148.85 219.28,194.22 200.73,194.22 193.51,213.04 226.5,213.04 226.51,213.06 246.67,213.06 244.62,207.72 239.44,194.22 213.61,126.94 "
   id="polygon825"
   style="fill:#ffffff" />
		<polygon
   points="279.82,126.94 233.77,126.94 256.83,186.83 "
   id="polygon827"
   style="fill:#ffffff" />
	</g>
</g>
</svg>
