<?xml version="1.0" encoding="UTF-8" standalone="no"?>
<!-- Generator: Adobe Illustrator 24.2.3, SVG Export Plug-In . SVG Version: 6.00 Build 0)  -->

<svg
   version="1.1"
   id="图层_1"
   x="0px"
   y="0px"
   viewBox="0 0 300 86.120003"
   xml:space="preserve"
   sodipodi:docname="CUAV_LOGO.svg"
   width="300"
   height="86.120003"
   inkscape:version="1.4 (86a8ad7, 2024-10-11)"
   xmlns:inkscape="http://www.inkscape.org/namespaces/inkscape"
   xmlns:sodipodi="http://sodipodi.sourceforge.net/DTD/sodipodi-0.dtd"
   xmlns="http://www.w3.org/2000/svg"
   xmlns:svg="http://www.w3.org/2000/svg"><defs
   id="defs5" /><sodipodi:namedview
   id="namedview5"
   pagecolor="#ffffff"
   bordercolor="#111111"
   borderopacity="1"
   inkscape:showpageshadow="0"
   inkscape:pageopacity="0"
   inkscape:pagecheckerboard="1"
   inkscape:deskcolor="#d1d1d1"
   inkscape:zoom="2.4"
   inkscape:cx="150"
   inkscape:cy="42.916667"
   inkscape:window-width="1920"
   inkscape:window-height="1018"
   inkscape:window-x="-6"
   inkscape:window-y="-6"
   inkscape:window-maximized="1"
   inkscape:current-layer="图层_1" />
<style
   type="text/css"
   id="style1">
	.st0{fill:#FFFFFF;}
</style>
<g
   id="g5"
   transform="translate(-20,-126.94)">
	<g
   id="g4">
		<path
   d="m 63.05,145.76 h 15.77 l 7.23,-18.82 h -23 c -23.74,0 -43.05,19.31 -43.05,43.05 0,23.74 19.31,43.05 43.05,43.05 h 12.39 l 7.22,-18.82 H 63.05 c -13.36,0 -24.23,-10.87 -24.23,-24.23 0,-13.36 10.87,-24.23 24.23,-24.23 z"
   id="path1" />
		<path
   d="m 137.3,181.28 c 0,7.13 -5.81,12.94 -12.94,12.94 -7.13,0 -12.94,-5.81 -12.94,-12.94 V 126.94 H 98.65 l -1.14,2.98 -4.91,12.78 v 38.58 c 0,17.51 14.25,31.76 31.76,31.76 17.51,0 31.76,-14.25 31.76,-31.76 V 126.94 H 137.3 Z"
   id="path2" />
		<polygon
   points="286.94,213.06 320,126.94 299.84,126.94 266.78,213.06 "
   id="polygon2" />
		<polygon
   points="190.12,126.94 157.06,213.06 177.21,213.06 201.86,148.85 219.28,194.22 200.73,194.22 193.51,213.04 226.5,213.04 226.51,213.06 246.67,213.06 244.62,207.72 239.44,194.22 213.61,126.94 "
   id="polygon3" />
		<polygon
   points="279.82,126.94 233.77,126.94 256.83,186.83 "
   id="polygon4" />
	</g>
</g>
</svg>
