<?xml version="1.0" encoding="UTF-8" standalone="no"?>
<svg
   width="260"
   height="70"
   viewBox="0 0 260 70"
   fill="none"
   version="1.1"
   id="svg1107"
   sodipodi:docname="Kruas-dark.svg"
   inkscape:version="1.2.2 (732a01da63, 2022-12-09)"
   xmlns:inkscape="http://www.inkscape.org/namespaces/inkscape"
   xmlns:sodipodi="http://sodipodi.sourceforge.net/DTD/sodipodi-0.dtd"
   xmlns="http://www.w3.org/2000/svg"
   xmlns:svg="http://www.w3.org/2000/svg">
  <defs
     id="defs1111" />
  <sodipodi:namedview
     id="namedview1109"
     pagecolor="#ffffff"
     bordercolor="#000000"
     borderopacity="0.25"
     inkscape:showpageshadow="2"
     inkscape:pageopacity="0.0"
     inkscape:pagecheckerboard="0"
     inkscape:deskcolor="#d1d1d1"
     showgrid="false"
     inkscape:zoom="4.6538462"
     inkscape:cx="82.834711"
     inkscape:cy="35.024793"
     inkscape:window-width="2560"
     inkscape:window-height="1369"
     inkscape:window-x="1192"
     inkscape:window-y="185"
     inkscape:window-maximized="1"
     inkscape:current-layer="svg1107" />
  <path
     d="M108.097 68.8599C106.616 68.3308 105.918 67.1925 105.936 65.337C105.961 62.726 107.835 60.9147 110.511 60.9147C112.256 60.9147 113.358 61.6092 113.982 63.1035C114.521 64.3934 114.48 65.1083 113.783 66.5464C112.802 68.5739 110.229 69.6208 108.097 68.8599ZM110.627 68.0877C112.747 67.4798 113.912 65.2815 113.119 63.3847C112.629 62.2106 111.923 61.7747 110.511 61.7747C108.372 61.7747 106.853 63.2557 106.806 65.3872C106.779 66.6539 107.399 67.6464 108.5 68.0967C109.275 68.4138 109.494 68.4132 110.627 68.0877ZM129.253 68.9053C128.842 68.756 128.363 68.3207 128.189 67.9378C127.725 66.9196 128.309 66.7273 129.141 67.6249C129.939 68.4867 130.221 68.5351 130.839 67.9169C131.58 67.1758 131.362 66.1922 130.143 64.784C128.871 63.3149 128.66 62.1664 129.52 61.3883C130.535 60.4704 132.723 61.0921 132.723 62.2978C132.723 62.7738 132 62.7141 131.576 62.2035C130.893 61.3805 129.856 61.8308 129.856 62.95C129.856 63.0981 130.398 63.8076 131.06 64.526C131.988 65.5329 132.264 66.0584 132.264 66.8193C132.265 68.4335 130.781 69.4607 129.253 68.9053ZM190.115 68.9483C186.556 68.0943 186.342 63.116 189.788 61.3345C191.427 60.4871 195.215 61.104 195.215 62.219C195.215 62.8425 194.863 62.8735 193.97 62.3289C192.862 61.6534 191.131 61.6158 190.066 62.2441C188.197 63.3489 187.664 66.0537 189.061 67.3484C190.05 68.2651 191.488 68.4956 192.798 67.9486C194.095 67.4063 194.355 67.3992 194.355 67.9038C194.355 68.6676 191.686 69.3258 190.115 68.9483ZM45.9324 68.2962C46.1629 67.9414 47.2247 66.1289 48.2913 64.268C49.358 62.4071 50.2836 60.9374 50.3475 61.0013C50.5876 61.2414 53.0206 68.7614 52.8982 68.8844C52.5512 69.2314 51.957 68.5906 51.6375 67.524L51.281 66.3337L49.6524 66.4192C48.0632 66.5028 48.0077 66.5338 47.3531 67.7229C46.904 68.5386 46.4896 68.9412 46.0978 68.9412C45.5579 68.9412 45.5454 68.891 45.9324 68.2962ZM50.5428 64.1874L50.0949 62.8735L49.4135 64.0733C49.0385 64.7332 48.7321 65.3245 48.7321 65.3872C48.7321 65.4499 49.2403 65.5012 49.8614 65.5012H50.9907L50.5428 64.1874ZM67.5166 67.1495C67.6253 66.1641 67.8612 64.3904 68.041 63.208L68.3683 61.058H70.4943C71.9401 61.058 72.6586 61.1727 72.7398 61.4163C72.827 61.6791 72.3546 61.7747 70.9721 61.7747C69.5621 61.7747 69.0849 61.8744 69.0849 62.1688C69.0849 62.3856 69.0043 62.9661 68.9057 63.4588L68.7266 64.3546H70.4824C71.8518 64.3546 72.2382 64.449 72.2382 64.7846C72.2382 65.1226 71.8398 65.2146 70.3749 65.2146H68.5116V66.1946C68.5116 66.7333 68.4333 67.3783 68.3378 67.6279C68.1909 68.0107 68.4357 68.0812 69.9144 68.0812C71.2796 68.0812 71.6648 68.1761 71.6648 68.5112C71.6648 68.8558 71.2325 68.9412 69.4922 68.9412H67.3196L67.5166 67.1495ZM86.4111 68.3195C86.4929 67.9522 86.6971 66.5547 86.8644 65.2146C87.0316 63.8745 87.2448 62.3444 87.3379 61.8147L87.5069 60.8514L89.1785 60.972C91.0944 61.1106 92.0182 61.7412 92.0182 62.9106C92.0182 63.9288 91.4151 64.695 90.324 65.0623L89.4258 65.3645L90.4279 66.9375C91.5441 68.6903 91.6217 68.9406 91.0484 68.9406C90.8304 68.9406 90.106 68.1021 89.4383 67.0773C88.7706 66.0525 88.1215 65.214 87.9967 65.214C87.8718 65.214 87.6604 66.0184 87.5284 67.002C87.3439 68.3768 87.1701 68.8128 86.7754 68.8886C86.3699 68.9668 86.2934 68.8468 86.4111 68.3195ZM90.5204 63.9085C91.7107 63.0748 90.9701 61.7747 89.3045 61.7747C88.2708 61.7747 88.0044 62.1318 88.0044 63.5179C88.0044 64.2722 88.097 64.3546 88.9438 64.3546C89.4604 64.3546 90.1699 64.1539 90.5204 63.9085ZM146.869 68.0095C146.958 67.4971 147.169 65.9814 147.336 64.6413C147.848 60.5408 147.652 60.8311 149.828 60.9696C151.92 61.1028 152.503 61.543 152.503 62.9894C152.503 64.3283 151.371 65.2146 149.662 65.2146H148.229L148.054 66.2896C147.664 68.6712 147.572 68.9412 147.145 68.9412C146.807 68.9412 146.743 68.7262 146.869 68.0095ZM151.118 63.8804C152.233 62.8723 151.465 61.7747 149.646 61.7747C148.724 61.7747 148.645 61.8774 148.378 63.423C148.218 64.3504 148.223 64.3546 149.406 64.3546C150.11 64.3546 150.808 64.1611 151.118 63.8804ZM166.043 68.2962C166.273 67.9414 167.335 66.1289 168.402 64.268C169.468 62.4071 170.394 60.9374 170.458 61.0013C170.698 61.2414 173.131 68.7614 173.008 68.8844C172.661 69.2314 172.067 68.5906 171.748 67.524L171.391 66.3337L169.763 66.4192C168.173 66.5028 168.118 66.5338 167.463 67.7229C167.014 68.5386 166.6 68.9412 166.208 68.9412C165.668 68.9412 165.656 68.891 166.043 68.2962ZM170.653 64.1874L170.205 62.8735L169.524 64.0733C169.149 64.7332 168.842 65.3245 168.842 65.3872C168.842 65.4499 169.351 65.5012 169.972 65.5012H171.101L170.653 64.1874ZM209.413 67.1495C209.522 66.1641 209.758 64.3904 209.937 63.208L210.265 61.058H212.391C213.837 61.058 214.555 61.1727 214.636 61.4163C214.724 61.6791 214.251 61.7747 212.868 61.7747C211.458 61.7747 210.981 61.8744 210.981 62.1688C210.981 62.3856 210.901 62.9661 210.802 63.4588L210.623 64.3546H212.379C213.748 64.3546 214.135 64.449 214.135 64.7846C214.135 65.1226 213.736 65.2146 212.271 65.2146H210.408V66.1946C210.408 66.7333 210.33 67.3783 210.234 67.6279C210.087 68.0107 210.332 68.0812 211.811 68.0812C213.176 68.0812 213.561 68.1761 213.561 68.5112C213.561 68.8558 213.129 68.9412 211.389 68.9412H209.216L209.413 67.1495ZM0 65.0689C0 64.6878 2.14636 64.6454 18.2506 64.7105C32.5436 64.7685 36.527 64.8622 36.6207 65.1429C36.7157 65.4272 32.9389 65.5012 18.3701 65.5012C2.19235 65.5012 0 65.4499 0 65.0689ZM223.308 65.0689C223.308 64.6878 225.454 64.6454 241.558 64.7105C255.851 64.7685 259.835 64.8622 259.928 65.1429C260.023 65.4272 256.247 65.5012 241.678 65.5012C225.5 65.5012 223.308 65.4499 223.308 65.0689ZM67.8529 56.4882C66.0714 55.8528 64.5772 54.7014 63.7895 53.3582C62.7975 51.6652 62.4398 47.6012 62.5509 39.2719L62.6351 32.9654L64.8567 32.8818L67.0783 32.7982L67.0992 40.3349C67.1243 49.3994 67.27 50.7263 68.339 51.646C69.2885 52.463 71.4624 52.5687 72.4914 51.8479C73.8446 50.9001 73.9581 50.0724 73.9581 41.1448V32.8221H76.2723H78.5865L78.4939 42.0668C78.4037 51.0494 78.3822 51.3498 77.7396 52.6547C77.3759 53.3935 76.5769 54.4505 75.9653 55.0035C74.0728 56.7133 70.3796 57.3894 67.8529 56.4882ZM86.3478 56.4798C85.6735 56.269 84.6601 55.7447 84.0963 55.3147C83.0368 54.5067 81.3312 52.1029 81.5576 51.7362C81.628 51.6222 82.485 51.0524 83.4621 50.4707C84.9545 49.5815 85.277 49.4818 85.4806 49.8455C86.0975 50.9485 87.2495 52.0187 88.1328 52.3101C90.0875 52.9551 92.1054 51.3301 91.4599 49.6317C91.3183 49.259 90.1281 48.0013 88.8154 46.8367C83.649 42.2532 82.5776 40.7948 82.5645 38.3313C82.5465 34.8657 85.1438 32.4333 88.8644 32.4315C91.1624 32.4303 92.8131 33.1302 94.5749 34.852L95.8422 36.0906L94.1742 37.6069L92.5062 39.1232L91.2658 37.9796C90.3771 37.1614 89.7739 36.8365 89.1397 36.8365C87.8509 36.8365 87.1456 37.3101 87.1456 38.1742C87.1456 38.9721 87.6341 39.4989 92.2165 43.6369C95.3244 46.4438 96.0321 47.6764 96.0321 50.285C96.0321 52.3931 95.5029 53.6867 94.0732 55.0752C92.364 56.7348 89.0776 57.3332 86.349 56.481V56.4798H86.3478ZM0 44.5745V32.8215H2.28491H4.56983L4.64985 36.7248L4.72988 40.6282L7.81027 36.7248L10.8907 32.8215H13.6318C15.7489 32.8215 16.3241 32.9033 16.1574 33.1798C16.0386 33.3769 14.3162 35.6021 12.3299 38.1247C10.3436 40.6473 8.61889 42.8737 8.49766 43.0713C8.35672 43.3007 9.79957 45.6274 12.4721 49.4806C14.7797 52.8076 16.7367 55.7088 16.8209 55.928C16.9452 56.2517 16.4686 56.3252 14.2918 56.318L11.6097 56.3096L8.16979 51.2859L4.72988 46.2622L4.65164 51.2955L4.57341 56.3287H2.28671H0V44.5745ZM20.3528 44.5745V32.8215L23.4344 32.8275C29.668 32.8388 31.9338 33.5979 33.4478 36.1814C34.1358 37.3549 34.2468 37.85 34.2379 39.6995C34.2265 42.0424 33.8616 43.0242 32.491 44.4031C32.0425 44.854 31.3211 45.3473 30.8875 45.5002C30.454 45.6531 30.1004 45.8615 30.1028 45.9648C30.1046 46.0675 31.2656 48.3298 32.6827 50.9915C34.0999 53.6533 35.2591 55.9429 35.2591 56.0797C35.2591 56.2165 34.171 56.3281 32.8416 56.3281H30.4241L28.1278 51.9566C24.7423 45.5109 24.9597 45.5504 24.9489 51.3833L24.94 56.3281H22.6467H20.3534L20.3528 44.5745ZM29.2231 41.2923C29.9696 40.6168 29.9959 39.131 29.2775 38.2435C28.8403 37.7037 28.3948 37.5609 26.8409 37.4618L24.9394 37.3405V39.7007V42.0609L26.7865 41.9432C28.0592 41.8626 28.8164 41.6601 29.2231 41.2923ZM36.9952 55.9806C37.0041 55.7769 38.9779 50.5155 41.3817 44.2879L45.752 32.9648L48.0775 32.8818L50.4031 32.7988L50.9752 34.3151C51.2899 35.1488 53.3007 40.3863 55.4435 45.9541C57.5863 51.5218 59.3391 56.1329 59.3391 56.2021C59.3391 56.2714 58.2719 56.3275 56.9676 56.3275H54.5961L53.7158 53.9626L52.8355 51.5977H48.1492H43.4629L42.5444 53.8909L41.6259 56.1842L39.3028 56.2672C37.547 56.3305 36.9832 56.2607 36.9952 55.9806ZM50.9555 46.7961C49.4577 42.713 48.2716 39.7073 48.1582 39.7049C48.0142 39.7013 45.2922 46.5919 45.2922 46.9604C45.2922 47.0673 46.5959 47.155 48.1892 47.155C50.3864 47.1544 51.0552 47.0679 50.9555 46.7961ZM110.651 44.5751V32.8221H112.944H115.237V37.2653V41.7085H119.107H122.977V37.2653V32.8221H125.27H127.563V44.5751V56.3281H125.277H122.99L122.912 51.2399L122.834 46.1517H119.107H115.38L115.302 51.2399L115.224 56.3281H112.937H110.651V44.5751V44.5751ZM130.733 55.9812C130.741 55.7775 132.716 50.5161 135.119 44.2885L139.49 32.9654L141.815 32.8824L144.141 32.7994L144.713 34.3157C145.028 35.1494 147.038 40.3869 149.181 45.9547C151.324 51.5218 153.077 56.1335 153.077 56.2027C153.077 56.272 152.009 56.3281 150.705 56.3281H148.334L147.453 53.9632L146.573 51.5983H141.886H137.2L136.281 53.8915L135.363 56.1848L133.04 56.2678C131.285 56.3311 130.721 56.2613 130.733 55.9812ZM144.693 46.7967C143.195 42.7136 142.009 39.7079 141.896 39.7055C141.752 39.7019 139.03 46.5925 139.03 46.961C139.03 47.0679 140.333 47.1556 141.927 47.1556C144.124 47.155 144.793 47.0685 144.693 46.7967ZM154.796 56.1287C154.796 55.8402 158.478 34.3229 158.676 33.4551C158.818 32.8304 158.935 32.8024 161.039 32.8818L163.252 32.9654L165.825 40.7769C167.239 45.0732 168.467 48.5883 168.552 48.5883C168.638 48.5883 169.876 45.0732 171.305 40.7769L173.902 32.9654L176.094 32.8818C178.177 32.8024 178.294 32.831 178.434 33.4551C178.515 33.8164 179.367 38.8204 180.326 44.5751C181.285 50.3298 182.139 55.3284 182.224 55.6832C182.374 56.3108 182.317 56.3281 180.109 56.3281H177.84L176.76 49.8066C176.165 46.2198 175.605 43.0271 175.513 42.7118C175.401 42.3266 174.893 43.5037 173.963 46.2951C173.202 48.5812 172.11 51.7792 171.536 53.4018L170.492 56.352L168.473 56.2684L166.453 56.1848L164.087 49.1617C162.787 45.2989 161.706 42.203 161.685 42.2818C161.665 42.3607 161.107 45.5211 160.444 49.305L159.24 56.1848L157.018 56.2684C155.796 56.315 154.796 56.2517 154.796 56.1287ZM185.469 44.5333V32.7385L190.27 32.8997C196.197 33.0986 198.167 33.6152 200.293 35.5262C205.079 39.8297 205.318 49.0088 200.762 53.5613C198.525 55.7972 196.421 56.3228 189.697 56.3258L185.469 56.3275V44.5333V44.5333ZM195.53 51.4167C197.925 50.6177 199.341 48.147 199.36 44.734C199.37 43.0475 199.229 42.427 198.512 40.9925C197.287 38.5433 195.825 37.6881 192.509 37.4815L190.055 37.3286V44.5357V51.7428H192.305C193.543 51.7416 194.995 51.5953 195.53 51.4167ZM206.411 55.9812C206.419 55.7775 208.394 50.5161 210.797 44.2885L215.168 32.9654L217.493 32.8824L219.818 32.7994L220.39 34.3157C220.705 35.1494 222.716 40.3869 224.858 45.9547C227.001 51.5218 228.754 56.1335 228.754 56.2027C228.754 56.272 227.686 56.3281 226.382 56.3281H224.011L223.13 53.9632L222.25 51.5983H217.564H212.877L211.958 53.8915L211.04 56.1848L208.717 56.2678C206.963 56.3311 206.399 56.2613 206.411 55.9812ZM220.371 46.7967C218.873 42.7136 217.687 39.7079 217.574 39.7055C217.43 39.7019 214.708 46.5925 214.708 46.961C214.708 47.0679 216.012 47.1556 217.605 47.1556C219.802 47.155 220.471 47.0685 220.371 46.7967ZM231.907 44.5751V32.8221H234.068H236.229L240.777 39.7736C243.279 43.5969 245.526 46.983 245.77 47.2984C246.175 47.8209 246.216 47.2022 246.228 40.3349L246.242 32.7982L248.463 32.8818L250.685 32.9654L250.759 44.6468L250.834 56.3281H248.572H246.311L241.475 48.9025L236.638 41.4768L236.562 48.9025L236.486 56.3281H234.197H231.909L231.907 44.5751ZM255.413 44.5751V32.8221H257.707H260V44.5751V56.3281H257.707H255.413V44.5751ZM49.2451 20.3769L36.4284 11.9849L22.4424 8.20581C8.01272 4.30724 6.44088 3.83903 8.45645 4.04447C9.0871 4.10897 13.344 4.4231 17.9162 4.7426L26.2293 5.32369L47.1107 10.207C58.5956 12.8927 68.1467 15.0307 68.336 14.9578C68.5253 14.885 70.2154 11.5143 72.0912 7.46706C73.9677 3.41979 75.5807 0.059904 75.6763 0.00078052C75.7718 -0.058343 77.3915 3.24899 79.2756 7.35001C81.1598 11.451 82.8583 14.8736 83.0506 14.9548C83.2429 15.0361 92.7886 12.907 104.263 10.2226L125.127 5.3422L133.627 4.72528C138.303 4.38607 142.419 4.15137 142.774 4.20333C143.13 4.25588 137.047 6.02122 129.257 8.12698L115.094 11.9557L102.17 20.3829L89.2454 28.8088L75.6536 28.7885L62.0617 28.7682L49.2451 20.3769Z"
     fill="black"
     id="path1105"
     style="fill:#ffffff" />
</svg>
