<?xml version="1.0" encoding="UTF-8"?>
<svg xmlns="http://www.w3.org/2000/svg" xmlns:xlink="http://www.w3.org/1999/xlink" version="1.1" viewBox="0 0 913.3 896.2">
  <!-- Generator: Adobe Illustrator 29.4.0, SVG Export Plug-In . SVG Version: 2.1.0 Build 152)  -->
  <defs>
    <style>
      .st0 {
        fill: #003462;
      }

      .st1 {
        mix-blend-mode: multiply;
        opacity: .6;
      }

      .st2 {
        isolation: isolate;
      }

      .st3 {
        fill: #fff;
      }
    </style>
  </defs>
  <g class="st2">
    <g id="Layer_1">
      <g>
        <image class="st1" width="3794" height="3794" transform="translate(1.4 -7.3) scale(.2)" xlink:href="NWblue_Logo-1.png"/>
        <g>
          <circle class="st3" cx="456.6" cy="448.1" r="401.2"/>
          <path class="st0" d="M456.6,72.1c-207.7,0-376,168.3-376,376s168.3,376,376,376,376-168.3,376-376S664.3,72.1,456.6,72.1ZM479.6,585.2h-62.3c-5.9,0-10.7-3.6-12.7-8.4l-88.2-173.8c-1.4-2.7-5.3-2.7-6.7,0l-88.6,174.6c-2.4,4.7-7.2,7.6-12.4,7.6h-62.3c-10.4,0-17.1-10.9-12.4-20.2l125.5-247.5c2.1-4.1,6.3-6.7,10.9-6.7h86,0c4.3.3,8.2,2.8,10.1,6.7l78.7,155.2c1.3,2.6,5.1,2.6,6.5,0l78.7-155.2c2.1-4.1,6.3-6.7,10.9-6.7h64.9c9.7,0,15.9,10.2,11.6,18.8,0,0-122.6,241.7-125.4,247.2-2.8,5.6-6.7,8.3-12.7,8.3ZM662.8,530.8c-5.2,0-9.4-4.2-9.4-9.4s4.2-9.4,9.4-9.4,9.4,4.2,9.4,9.4-4.2,9.4-9.4,9.4ZM771.5,345.1c-.2.5-.6.9-1,1.2l-12.6,9.2c-1.1.8-1.7,2.2-1.4,3.5.1.7.2,1.5.2,2.3,0,1.7-.5,3.6-1.5,5.7-.5,1-1.2,2-1.9,2.8-.8.9-1.6,1.6-2.5,2.1-.9.5-1.9.9-2.8,1.1-1.4.3-2.4-1.2-1.8-2.4l15.5-30.3c.4-.8.1-1.8-.7-2.3-.2-.1-2.4-1.3-3.2-1.7-4-2-7.9-3.2-12-3.7-4-.4-7.9-.1-11.5.9-3.6,1.1-7,2.9-10,5.4-3,2.6-5.5,5.8-7.6,9.8-2,3.9-3.2,7.9-3.7,11.9-.5,4.1-.2,7.9.9,11.6,1,3.7,2.9,7.1,5.5,10.3,2.6,3.2,6,5.8,10.1,7.9,4.5,2.3,8.8,3.5,13,3.6.5,0,.9,0,1.4,0,1.3,0,2.1,1.4,1.5,2.5l-4.2,8.2c-.4.8-1.5,1.2-2.3.8l-37.2-18.9c-.8-.4-1.9,0-2.3.7l-9.7,19c-.4.8,0,1.9.7,2.3l25.1,12.8c2.2,1.1,3.7,2.5,4.4,4,.7,1.5.7,3,0,4.5-.8,1.6-1.9,2.6-3.4,2.8-1.4.3-3.4-.2-6-1.5l-25.1-12.8c-.8-.4-1.9,0-2.3.7l-9.7,19c-.4.8,0,1.9.7,2.3l29.1,14.8c2.5,1.3,5.1,2.3,7.9,3,.1,0,.3,0,.4.1,1.1.3,1.6,1.4,1.1,2.4l-3.7,7.3c-.4.8-1.5,1.2-2.3.8l-59.3-30.2c-.8-.4-1.9,0-2.3.7l-9.9,19.5c-.4.8,0,1.9.7,2.3l59.3,30.2c.8.4,1.2,1.5.7,2.3l-4.1,8.1c-.6,1.1-2.1,1.2-2.9.2-.9-1.1-1.8-2.1-2.8-3.2-2.7-2.6-5.7-4.8-9-6.4-3.2-1.7-6.7-2.8-10.3-3.4-3.6-.6-7.2-.6-10.6,0-3.5.6-6.7,2-9.7,4.1-3,2.1-5.4,5-7.3,8.7-1.2,2.4-2,5.1-2.3,8-.3,2.8,0,5.3.9,7.5.1.3,0,.5-.4.3-.4-.2-24.1-12.3-24.1-12.3-.8-.4-1.9,0-2.3.7l-9.7,19c-.4.8,0,1.9.7,2.3l59.4,30.3c.8.4,1.2,1.5.7,2.3,0,0-6.3,12.5-8.4,16.6-2.1,4.1-6.3,8.3-12.7,8.3h-62.3c-5.9,0-10.7-3.6-12.7-8.4l-29.1-57c-.6-1.1-.6-2.4,0-3.5l42.4-83.6c1.4-2.8,5.5-2.8,6.9,0l20.5,39.9c1.4,2.7,5.2,2.7,6.5,0l78.2-154.2c2.4-4.7,7.2-7.6,12.4-7.6h61.1c10.9,0,18,11.5,13.1,21.3l-6.6,13ZM740,353.4l-5.7,11.3c-.6,1.2-2.3,1.3-2.9.2-.4-.7-.8-1.5-1.1-2.4-.7-2-.4-4.2.9-6.7,1.1-2.2,2.6-3.7,4.4-4.4,1.1-.4,2.1-.6,3.2-.4,1.2.2,1.9,1.4,1.3,2.5Z"/>
        </g>
      </g>
    </g>
  </g>
</svg>